<svg width="40" height="40" viewBox="0 0 40 40" fill="none" xmlns="http://www.w3.org/2000/svg">
<circle cx="20" cy="20" r="20" fill="#444444"/>
<path d="M19.9982 16.4083C18.0107 16.4083 16.4066 18.0124 16.4066 20C16.4066 21.9876 18.0107 23.5917 19.9982 23.5917C21.9858 23.5917 23.5899 21.9876 23.5899 20C23.5899 18.0124 21.9858 16.4083 19.9982 16.4083ZM19.9982 22.3343C18.7129 22.3343 17.6639 21.2854 17.6639 20C17.6639 18.7146 18.7129 17.6657 19.9982 17.6657C21.2836 17.6657 22.3326 18.7146 22.3326 20C22.3326 21.2854 21.2836 22.3343 19.9982 22.3343ZM23.737 15.4242C23.273 15.4242 22.8982 15.7989 22.8982 16.263C22.8982 16.727 23.273 17.1018 23.737 17.1018C24.2011 17.1018 24.5758 16.7288 24.5758 16.263C24.576 16.1528 24.5544 16.0436 24.5123 15.9418C24.4702 15.84 24.4084 15.7475 24.3305 15.6695C24.2525 15.5916 24.16 15.5298 24.0582 15.4877C23.9564 15.4456 23.8472 15.424 23.737 15.4242ZM26.9995 20C26.9995 19.0333 27.0082 18.0754 26.9539 17.1105C26.8997 15.9898 26.644 14.9951 25.8244 14.1756C25.0031 13.3543 24.0102 13.1003 22.8895 13.0461C21.9228 12.9918 20.9649 13.0005 20 13.0005C19.0333 13.0005 18.0754 12.9918 17.1105 13.0461C15.9898 13.1003 14.9951 13.356 14.1756 14.1756C13.3543 14.9969 13.1003 15.9898 13.0461 17.1105C12.9918 18.0772 13.0005 19.0351 13.0005 20C13.0005 20.9649 12.9918 21.9246 13.0461 22.8895C13.1003 24.0102 13.356 25.0049 14.1756 25.8244C14.9969 26.6457 15.9898 26.8997 17.1105 26.9539C18.0772 27.0082 19.0351 26.9995 20 26.9995C20.9667 26.9995 21.9246 27.0082 22.8895 26.9539C24.0102 26.8997 25.0049 26.644 25.8244 25.8244C26.6457 25.0031 26.8997 24.0102 26.9539 22.8895C27.01 21.9246 26.9995 20.9667 26.9995 20ZM25.4584 24.1293C25.3306 24.448 25.1765 24.6862 24.9296 24.9313C24.6827 25.1782 24.4463 25.3324 24.1275 25.4602C23.2064 25.8262 21.0192 25.7439 19.9982 25.7439C18.9773 25.7439 16.7883 25.8262 15.8672 25.4619C15.5485 25.3341 15.3103 25.18 15.0652 24.9331C14.8182 24.6862 14.6641 24.4498 14.5363 24.131C14.1721 23.2082 14.2544 21.0209 14.2544 20C14.2544 18.9791 14.1721 16.7901 14.5363 15.869C14.6641 15.5502 14.8182 15.3121 15.0652 15.0669C15.3121 14.8218 15.5485 14.6659 15.8672 14.5381C16.7883 14.1738 18.9773 14.2561 19.9982 14.2561C21.0192 14.2561 23.2082 14.1738 24.1293 14.5381C24.448 14.6659 24.6862 14.82 24.9313 15.0669C25.1782 15.3138 25.3324 15.5502 25.4602 15.869C25.8244 16.7901 25.7421 18.9791 25.7421 20C25.7421 21.0209 25.8244 23.2082 25.4584 24.1293Z" fill="white"/>
</svg>
