<svg width="40" height="40" viewBox="0 0 40 40" fill="none" xmlns="http://www.w3.org/2000/svg">
<circle cx="20" cy="20" r="20" fill="#444444"/>
<path d="M28 14.663C27.3748 14.9364 26.6945 15.1331 25.9938 15.2098C26.7213 14.7716 27.2661 14.0794 27.526 13.263C26.8433 13.6747 26.0954 13.9634 25.3155 14.1163C24.9895 13.763 24.5952 13.4816 24.1573 13.2896C23.7193 13.0975 23.247 12.9989 22.7699 13C20.8392 13 19.2865 14.5864 19.2865 16.5331C19.2865 16.8065 19.3192 17.0799 19.3723 17.3429C16.4814 17.1897 13.9031 15.7897 12.189 13.6462C11.8767 14.1869 11.713 14.8027 11.7151 15.4293C11.7151 16.6553 12.33 17.7364 13.2678 18.3722C12.7151 18.3501 12.1754 18.1962 11.6926 17.9228V17.9663C11.6926 19.6831 12.8898 21.1059 14.4854 21.4331C14.1858 21.512 13.8776 21.5524 13.5681 21.5533C13.3413 21.5533 13.1268 21.5305 12.9102 21.4994C13.3515 22.8994 14.6366 23.9163 16.1668 23.9494C14.9696 24.9 13.47 25.4592 11.8417 25.4592C11.5496 25.4592 11.2799 25.4488 11 25.4157C12.5445 26.4201 14.3771 27 16.3507 27C22.7576 27 26.2634 21.6195 26.2634 16.9494C26.2634 16.7962 26.2634 16.6429 26.2532 16.4897C26.9315 15.9864 27.526 15.363 28 14.663Z" fill="white"/>
</svg>
