<svg width="40" height="40" viewBox="0 0 40 40" fill="none" xmlns="http://www.w3.org/2000/svg">
<circle cx="20" cy="20" r="20" fill="#444444"/>
<path d="M20.051 14H20.14C20.962 14.0032 25.127 14.0352 26.25 14.3577C26.5895 14.4561 26.8989 14.6479 27.1472 14.914C27.3955 15.18 27.574 15.511 27.665 15.8738C27.766 16.2796 27.837 16.8166 27.885 17.3708L27.895 17.4818L27.917 17.7594L27.925 17.8705C27.99 18.8463 27.998 19.7603 27.999 19.96V20.04C27.998 20.2472 27.989 21.2231 27.917 22.2395L27.909 22.3516L27.9 22.4627C27.85 23.0734 27.776 23.6799 27.665 24.1262C27.5743 24.4891 27.3958 24.8203 27.1475 25.0864C26.8991 25.3525 26.5896 25.5442 26.25 25.6423C25.09 25.9754 20.681 25.9989 20.07 26H19.928C19.619 26 18.341 25.9936 17.001 25.9445L16.831 25.9381L16.744 25.9338L16.573 25.9263L16.402 25.9189C15.292 25.8665 14.235 25.7822 13.748 25.6412C13.4085 25.5432 13.0991 25.3517 12.8507 25.0858C12.6024 24.8199 12.4238 24.4889 12.333 24.1262C12.222 23.6809 12.148 23.0734 12.098 22.4627L12.09 22.3506L12.082 22.2395C12.0326 21.516 12.0053 20.791 12 20.0657L12 19.9343C12.002 19.7048 12.01 18.9115 12.064 18.0359L12.071 17.926L12.074 17.8705L12.082 17.7594L12.104 17.4818L12.114 17.3708C12.162 16.8166 12.233 16.2785 12.334 15.8738C12.4247 15.5109 12.6032 15.1797 12.8515 14.9136C13.0999 14.6475 13.4094 14.4558 13.749 14.3577C14.236 14.2189 15.293 14.1335 16.403 14.0801L16.573 14.0726L16.745 14.0662L16.831 14.063L17.002 14.0555C17.9537 14.0228 18.9058 14.0047 19.858 14.0011H20.051V14ZM18.4 17.4274V22.5716L22.557 20.0005L18.4 17.4274Z" fill="white"/>
</svg>
